<?xml version="1.0" encoding="UTF-8"?>
<svg version="1.1" xmlns="http://www.w3.org/2000/svg" width="1201" height="634">
<path d="M0 0 C396.33 0 792.66 0 1201 0 C1201 209.22 1201 418.44 1201 634 C804.67 634 408.34 634 0 634 C0 424.78 0 215.56 0 0 Z " fill="#FCFDFC" transform="translate(0,0)"/>
<path d="M0 0 C0.969375 0.556875 1.93875 1.11375 2.9375 1.6875 C26.26422095 19.3015546 36.09903028 46.5517709 40.6875 74.6875 C40.89955078 75.92822266 41.11160156 77.16894531 41.33007812 78.44726562 C43.44763957 91.06579422 44.27313389 103.34650408 44.3125 116.125 C44.31511841 116.94391724 44.31773682 117.76283447 44.32043457 118.60656738 C44.32965684 145.96639645 41.01077257 173.1719326 36.4621582 200.12158203 C35.95614488 203.27313884 35.52629282 206.43077025 35.09765625 209.59375 C33.90017662 218.08401985 32.23410223 226.46826701 30.5625 234.875 C30.10851702 237.17436901 29.6555812 239.47394145 29.20309448 241.77360535 C28.90477861 243.28852261 28.60557074 244.8032645 28.30545044 246.31782532 C27.57692436 250.00598548 26.86688674 253.69600951 26.19677734 257.39526367 C24.83556759 264.90740401 23.26494548 272.14810274 20.89453125 279.41992188 C19.28857086 284.54978897 18.23275843 289.72065293 17.21409607 294.99705505 C15.91668254 301.61817094 14.28253535 308.1362697 12.57543945 314.66210938 C12.06115412 316.63015036 11.55456541 318.60005956 11.04882812 320.5703125 C9.16937166 327.84085039 7.12783451 335.04088123 4.86645508 342.20239258 C4.05891237 344.80978392 3.32392335 347.42420932 2.625 350.0625 C-0.75001322 362.62708725 -4.62850109 375.04186057 -8.80859375 387.359375 C-9.79708368 390.37994095 -10.7048529 393.40729731 -11.56762695 396.46557617 C-18.65603407 421.5435719 -27.92445786 446.15211354 -37.45288086 470.38989258 C-39.35113393 475.24592576 -41.11538135 480.13308513 -42.8125 485.0625 C-69.69331321 562.39639084 -69.69331321 562.39639084 -95.4375 579.5 C-99.88172652 581.37125327 -103.26709098 582.16892226 -108 581 C-122.35124232 573.14542396 -126.99422542 552.21362159 -132 538 C-132.26586914 537.24686523 -132.53173828 536.49373047 -132.80566406 535.71777344 C-135.50457699 528.00391244 -137.85091921 520.19923876 -140.12158203 512.35180664 C-142.21290444 505.16381141 -144.59098779 498.0871585 -147 491 C-147.20310791 490.35877197 -147.40621582 489.71754395 -147.61547852 489.05688477 C-149.91915606 481.86359974 -152.79257341 474.90942119 -155.6875 467.9375 C-155.95422516 467.2941571 -156.22095032 466.65081421 -156.49575806 465.98797607 C-160.60180116 456.11007007 -164.8503365 446.38499898 -170 437 C-170.34063477 436.37528809 -170.68126953 435.75057617 -171.03222656 435.10693359 C-178.46992477 421.62058675 -187.05698626 410.45587234 -199.76171875 401.609375 C-200.50035156 401.07828125 -201.23898437 400.5471875 -202 400 C-202 399.67 -202 399.34 -202 399 C-191.63379229 398.33121241 -184.15837059 401.42010784 -176.2109375 408.04296875 C-175.11652344 409.01169922 -175.11652344 409.01169922 -174 410 C-172.90558594 410.95326172 -172.90558594 410.95326172 -171.7890625 411.92578125 C-159.25542501 423.60185407 -151.89370632 439.39074588 -144.28320312 454.45996094 C-143.21461245 456.57518494 -142.13525926 458.683991 -141.046875 460.7890625 C-138.42400109 465.91558878 -136.13397694 471.05355782 -134.06640625 476.42578125 C-132.41675558 480.40790502 -130.43958748 484.21395638 -128.46484375 488.04296875 C-127.43883191 490.11414466 -126.4817259 492.22022226 -125.578125 494.34765625 C-120.67814012 505.6879678 -114.67909336 516.31220647 -107 526 C-104.10558802 526.1206005 -102.63370888 526.09117882 -100 525 C-92.89561307 518.09332328 -88.30492765 509.4730278 -85 500.25 C-84.7429126 499.5489917 -84.4858252 498.8479834 -84.22094727 498.12573242 C-83.47433121 496.08604188 -82.73589603 494.04357861 -82 492 C-81.31259503 490.10413221 -80.62510814 488.20829411 -79.9375 486.3125 C-79.64278809 485.49418701 -79.34807617 484.67587402 -79.04443359 483.83276367 C-78.01511187 481.04098714 -76.92209763 478.28107008 -75.82421875 475.515625 C-72.49983572 466.88587012 -69.65734278 458.10219727 -66.80615234 449.30688477 C-65.87508166 446.43775163 -64.93592761 443.57135102 -63.99609375 440.70507812 C-61.26763715 432.34051231 -58.61926797 424.02624405 -56.60839844 415.4543457 C-56.03979678 413.16054454 -55.35842112 410.9665416 -54.5859375 408.734375 C-52.2625451 402.00892443 -50.4856648 395.11446963 -48.625 388.25 C-48.42513489 387.51435822 -48.22526978 386.77871643 -48.01934814 386.02078247 C-42.10055334 364.20288024 -37.19233841 342.18871326 -32.44937134 320.08908081 C-32.1456436 318.67708202 -31.8404076 317.26540696 -31.53378296 315.85403442 C-28.76210421 303.08733729 -26.32682458 290.27087285 -24.01782227 277.4128418 C-23.43986515 274.20064511 -22.85394279 270.98996807 -22.26757812 267.77929688 C-19.95576038 255.01332264 -17.97799564 242.24199102 -16.31210327 229.37637329 C-15.86960144 226.00713746 -15.3874691 222.64462023 -14.90234375 219.28125 C-12.98217437 205.84391626 -11.28059811 192.43889518 -10.2265625 178.90478516 C-9.97335174 175.65833949 -9.70481951 172.41328181 -9.4375 169.16796875 C-8.49412382 157.4350806 -7.56014484 145.77676728 -8 134 C-8.04447266 132.36417969 -8.04447266 132.36417969 -8.08984375 130.6953125 C-8.79660075 115.76722567 -10.89430252 94.74445924 -21 83 C-23.85198471 80.70711724 -26.81870614 78.80344251 -30 77 C-30.60585938 76.65582031 -31.21171875 76.31164062 -31.8359375 75.95703125 C-47.83374833 68.51700132 -69.43063923 77.51843012 -84.7734375 83.015625 C-89.35998022 84.7264519 -93.88699982 86.54598004 -98.375 88.5 C-99.04660156 88.78230469 -99.71820312 89.06460938 -100.41015625 89.35546875 C-104.93088788 91.31830115 -109.69746795 93.3949359 -112 98 C-112.11035101 100.03143799 -112.15651797 102.06646865 -112.17358398 104.10083008 C-112.19381874 106.03234673 -112.19381874 106.03234673 -112.21446228 108.00288391 C-112.21952223 108.69611567 -112.22458218 109.38934742 -112.22979546 110.1035862 C-112.24632539 112.30031491 -112.26959113 114.49688068 -112.29469299 116.69352722 C-112.36496751 122.94297927 -112.42412731 129.19251476 -112.47680664 135.44213867 C-112.65201387 155.7069317 -113.30980141 175.79661192 -115 196 C-116.72702361 196.01501688 -118.45408589 196.02561946 -120.18115234 196.03442383 C-121.62377945 196.04400871 -121.62377945 196.04400871 -123.09555054 196.05378723 C-127.65912895 195.96927474 -132.10999642 195.31478706 -136.625 194.6875 C-174.63892544 189.92892228 -212.52665924 189.5174807 -250.77557373 189.96289062 C-253.57969628 189.9951628 -256.38379117 190.02222456 -259.18798828 190.046875 C-277.83879897 190.23032352 -296.29868415 191.76243677 -314.84619141 193.62792969 C-324.27567044 194.56606717 -333.51237932 195.30598152 -343 195 C-344.37122327 173.63663314 -345.34002176 152.41613966 -345 131 C-343.90429688 130.85304687 -342.80859375 130.70609375 -341.6796875 130.5546875 C-317.98431342 127.25465265 -294.69270003 122.64137646 -272 115 C-271.1426123 114.71511719 -270.28522461 114.43023437 -269.40185547 114.13671875 C-259.91153474 110.96785236 -250.54915573 107.50403793 -241.25 103.8125 C-240.03534058 103.33115601 -240.03534058 103.33115601 -238.79614258 102.84008789 C-234.41652698 101.07263439 -230.18764056 99.13855492 -225.98339844 96.98901367 C-222.54844814 95.27618949 -219.01908688 93.78010535 -215.5 92.25 C-206.8518902 88.44144551 -198.39378495 84.33772779 -190 80 C-188.86860596 79.41581299 -188.86860596 79.41581299 -187.71435547 78.81982422 C-168.73717243 68.98977608 -150.08809322 58.53995785 -131.9375 47.25 C-115.48593161 37.07546394 -98.65389446 27.53533985 -81.60644531 18.39941406 C-79.04247181 17.02280333 -76.48590117 15.63314158 -73.9296875 14.2421875 C-54.35842352 3.66433438 -21.71739484 -13.78958478 0 0 Z " fill="#15D080" transform="translate(828,28)"/>
<path d="M0 0 C2.00275884 0.66143446 3.98282649 1.17948004 6.03662109 1.65405273 C11.13703638 2.87744611 15.9885396 4.75153291 20.89599609 6.58374023 C27.6978264 9.09605188 34.49075176 11.56656553 41.41552734 13.72436523 C43.81130614 14.58807948 46.08082924 15.55606975 48.39990234 16.60327148 C52.95594271 18.65596704 57.57591038 20.43951445 62.27099609 22.14624023 C63.10228027 22.44989502 63.93356445 22.7535498 64.79003906 23.06640625 C71.47462723 25.49372407 78.19032216 27.80260597 84.95849609 29.98706055 C87.42690608 30.80141545 89.87910819 31.65776143 92.33349609 32.51342773 C118.42143373 41.43354906 146.35254797 47.74960914 173.87109375 49.92407227 C174.77263184 49.99867676 175.67416992 50.07328125 176.60302734 50.15014648 C177.42391846 50.21016846 178.24480957 50.27019043 179.09057617 50.33203125 C181.14599609 50.70874023 181.14599609 50.70874023 183.14599609 52.70874023 C173.76820292 58.40188432 164.42735624 62.90082907 154.14599609 66.70874023 C153.06189453 67.13928711 151.97779297 67.56983398 150.86083984 68.01342773 C114.83476871 81.83988173 74.02239612 82.12188966 36.14599609 77.70874023 C35.36256836 77.61802246 34.57914063 77.52730469 33.77197266 77.43383789 C28.39428951 76.80001478 23.02435786 76.11152985 17.66162109 75.36108398 C-1.32096862 72.90166086 -22.84801566 74.42465714 -38.79931641 85.93530273 C-52.69436706 97.92836927 -58.38123373 116.95123435 -59.85400391 134.70874023 C-59.99375672 138.06357435 -60.01740301 141.41375917 -60.02197266 144.77124023 C-60.02812088 146.18405525 -60.02812088 146.18405525 -60.03439331 147.62541199 C-60.04389236 150.65322582 -60.0439307 153.68091375 -60.04150391 156.70874023 C-60.04189667 157.73609283 -60.04228943 158.76344543 -60.04269409 159.82192993 C-60.92219329 184.58892515 -60.92219329 184.58892515 -56.85400391 208.70874023 C-56.57826784 210.85052106 -56.34249019 212.99751747 -56.12744141 215.14624023 C-55.98557166 216.50944115 -55.84286943 217.8725556 -55.69946289 219.2355957 C-55.6234787 219.96244568 -55.54749451 220.68929565 -55.46920776 221.43817139 C-53.8690061 236.56435666 -51.74631929 251.57338759 -49.29150391 266.58374023 C-49.14388611 267.49494629 -48.99626831 268.40615234 -48.84417725 269.3449707 C-47.32783724 278.66477049 -45.72360801 287.91261711 -43.48706055 297.09033203 C-42.68682423 300.40021807 -42.03247172 303.73030213 -41.38134766 307.07202148 C-40.76225438 310.16748789 -40.08911925 313.2494678 -39.41650391 316.33374023 C-38.35997236 321.19482625 -37.44515684 326.05631518 -36.60400391 330.95874023 C-35.08027551 339.57794208 -32.71798764 347.97280115 -30.36669922 356.3972168 C-28.81795901 361.97302081 -27.46037477 367.50501834 -26.37963867 373.1887207 C-25.36554263 378.0505411 -23.96497225 382.80972136 -22.60400391 387.58374023 C-22.29390381 388.67944336 -21.98380371 389.77514648 -21.66430664 390.90405273 C-12.38048123 423.89398107 -12.38048123 423.89398107 -0.86962891 456.14233398 C0.63548579 459.94564304 1.89074219 463.81745312 3.14599609 467.70874023 C6.624973 478.30646401 10.15088314 488.72962703 14.87255859 498.84545898 C16.1976781 501.82494547 17.33394297 504.83579532 18.45849609 507.89624023 C22.58335279 518.75450787 27.98420772 528.97553318 33.89599609 538.95874023 C34.26047852 539.57861816 34.62496094 540.19849609 35.00048828 540.8371582 C37.06689326 544.24871153 39.31216032 546.92596457 42.14599609 549.70874023 C42.14599609 550.36874023 42.14599609 551.02874023 42.14599609 551.70874023 C47.28012117 550.36861587 49.15418067 547.30674799 51.70849609 542.95874023 C52.33824341 541.91810425 52.33824341 541.91810425 52.98071289 540.85644531 C63.19405526 523.76583315 72.20979056 506.38479674 79.14599609 487.70874023 C79.79955078 485.9859082 79.79955078 485.9859082 80.46630859 484.22827148 C87.90533801 464.16071009 87.99795892 448.41731787 83.46557617 427.83032227 C82.83220366 424.95286862 82.21880772 422.07171567 81.60888672 419.18920898 C81.20964102 417.32568207 80.80928841 415.4623919 80.40771484 413.59936523 C80.22633469 412.75432434 80.04495453 411.90928345 79.858078 411.03863525 C78.91798599 406.7814302 77.84519754 402.61580104 76.56176758 398.44824219 C75.4899573 394.95961313 74.68706229 391.61624579 74.23193359 387.98608398 C73.38559278 382.01719993 72.29240649 376.12450392 71.12255859 370.21264648 C70.73908689 368.26578937 70.35562355 366.31893061 69.97216797 364.37207031 C69.77550537 363.37462799 69.57884277 362.37718567 69.3762207 361.34951782 C65.77049075 343.01014839 62.56766217 324.75069689 60.48388672 306.17089844 C60.17938104 303.95201135 59.69671443 301.87547719 59.14599609 299.70874023 C59.07975103 297.95987042 59.06047014 296.20871276 59.08349609 294.45874023 C59.09251953 293.56670898 59.10154297 292.67467773 59.11083984 291.75561523 C59.12824219 290.74241211 59.12824219 290.74241211 59.14599609 289.70874023 C70.05349978 287.42364868 80.87806843 285.97456323 91.97460938 284.99438477 C94.95696513 284.72576612 97.93767391 284.44256438 100.91821289 284.15455627 C150.66984627 279.34880051 199.91004823 279.55284122 249.58349609 285.27124023 C251.04071579 285.43890396 251.04071579 285.43890396 252.52737427 285.60995483 C255.27474958 285.92949043 258.02107465 286.25664459 260.76708984 286.58764648 C261.60082123 286.6855246 262.43455261 286.78340271 263.29354858 286.88424683 C269.029201 287.59194514 269.029201 287.59194514 270.14599609 288.70874023 C270.19442603 301.11450938 267.96589819 313.39390189 265.92724609 325.58740234 C265.40118113 328.74016574 264.88985107 331.89505616 264.38037109 335.05053711 C262.23424887 348.16733304 259.66725572 361.14764848 256.73323059 374.1103363 C255.92832046 377.6719146 255.14059817 381.23723486 254.35223389 384.80250549 C253.62117046 388.10555913 252.88379669 391.40718561 252.14599609 394.70874023 C248.21421449 393.06419697 245.30092886 390.36814142 242.14599609 387.58374023 C223.96613451 371.90389927 206.64960934 364.24343054 182.53369141 365.49731445 C177.31235234 365.95965388 172.84572363 367.4637811 168.14599609 369.70874023 C167.21787109 370.1328418 166.28974609 370.55694336 165.33349609 370.99389648 C148.55426901 379.36020554 137.97400082 394.73444754 129.14599609 410.70874023 C128.81776855 411.30187012 128.48954102 411.895 128.15136719 412.50610352 C120.97551672 425.69641617 115.66741987 439.77208271 110.14599609 453.70874023 C109.79085937 454.60012695 109.43572266 455.49151367 109.06982422 456.40991211 C106.0091334 464.10166831 103.08583302 471.81713009 100.39599609 479.64624023 C71.91032694 562.3970089 71.91032694 562.3970089 48.31396484 575.86108398 C42.92444841 577.96833635 37.35475851 577.53484398 32.08349609 575.27124023 C21.65602517 569.21118699 15.29246063 558.71968893 9.14599609 548.70874023 C8.58960449 547.80671875 8.58960449 547.80671875 8.02197266 546.88647461 C-3.69067444 527.62848342 -12.14383195 506.45279899 -20.47900391 485.57983398 C-21.91379128 481.99099621 -23.39762775 478.44099918 -24.99072266 474.91967773 C-26.76791862 470.97644068 -28.26434597 466.98590931 -29.66650391 462.89624023 C-29.91440674 462.18483887 -30.16230957 461.4734375 -30.41772461 460.74047852 C-31.23357374 458.3978513 -32.04412806 456.05343874 -32.85400391 453.70874023 C-33.77563324 451.04575839 -34.69853917 448.38323957 -35.62426758 445.72167969 C-36.22073596 444.00625757 -36.81478219 442.28999068 -37.40600586 440.57275391 C-38.65305942 436.9825965 -39.93157098 433.44148327 -41.45556641 429.95874023 C-42.68870605 427.09289615 -43.66371963 424.32248863 -44.54150391 421.33374023 C-46.89540089 413.48741694 -49.41794194 405.69748177 -51.94848633 397.90649414 C-53.84305694 392.02959052 -55.59763408 386.14761212 -57.14086914 380.16821289 C-57.88585097 377.59890549 -58.84208199 375.18348309 -59.85400391 372.70874023 C-61.64759753 366.83014561 -63.07440175 360.86317102 -64.54150391 354.89624023 C-66.69854748 346.17550625 -68.98028124 337.49779515 -71.35400391 328.83374023 C-74.88599111 315.87180313 -77.94848572 302.8238705 -80.85400391 289.70874023 C-81.08893555 288.6483252 -81.32386719 287.58791016 -81.56591797 286.49536133 C-85.05222726 270.70029522 -88.20903319 254.89857294 -90.99853516 238.96459961 C-91.20865234 237.77543945 -91.41876953 236.5862793 -91.63525391 235.36108398 C-91.82152344 234.29881592 -92.00779297 233.23654785 -92.19970703 232.14208984 C-92.70003631 229.51666794 -93.2555804 226.93090716 -93.85620117 224.32836914 C-94.839903 219.95373611 -95.49237811 215.59040684 -96.03759766 211.14233398 C-96.13772659 210.354319 -96.23785553 209.56630402 -96.34101868 208.75440979 C-96.66214673 206.21887283 -96.97717744 203.68262864 -97.29150391 201.14624023 C-97.51227323 199.38253588 -97.73330375 197.6188642 -97.95458984 195.85522461 C-98.28426502 193.22646294 -98.61350414 190.59765317 -98.94082642 187.96859741 C-99.53786819 183.18151449 -100.15773072 178.39870676 -100.81103516 173.61889648 C-102.61654115 160.30809163 -103.61260014 147.13939802 -103.85400391 133.70874023 C-103.8673175 133.04042175 -103.8806311 132.37210327 -103.89434814 131.68353271 C-104.67108381 91.99582493 -105.16028705 40.28579053 -76.04150391 9.22290039 C-55.39875828 -11.59306271 -26.01396206 -9.06598787 0 0 Z " fill="#15D080" transform="translate(432.85400390625,33.291259765625)"/>
<path d="M0 0 C0.99 0.495 0.99 0.495 2 1 C-2.30769231 4.93846154 -2.30769231 4.93846154 -5.8125 5.25 C-6.8953125 5.12625 -6.8953125 5.12625 -8 5 C-8.33 5.99 -8.66 6.98 -9 8 C-11.39615387 9.16569648 -13.65098426 9.92244095 -16.25 10.5 C-16.8275 10.665 -17.405 10.83 -18 11 C-18.33 11.66 -18.66 12.32 -19 13 C-19.66 13 -20.32 13 -21 13 C-20.93099487 14.53140625 -20.93099487 14.53140625 -20.8605957 16.09375 C-19.92644153 37.81740751 -19.91656043 59.29657658 -21.375 81 C-21.4442569 82.03092773 -21.51351379 83.06185547 -21.58486938 84.12402344 C-22.24535831 93.76587138 -22.99987112 103.3870022 -24 113 C-42.95674937 113.35033007 -42.95674937 113.35033007 -50.1875 111.50390625 C-55.25954195 110.5951654 -60.43432705 110.56972994 -65.578125 110.42993164 C-66.37734375 110.4014917 -67.1765625 110.37305176 -68 110.34375 C-68.721875 110.32505859 -69.44375 110.30636719 -70.1875 110.28710938 C-72 110 -72 110 -74 108 C-63.2476574 107.65357706 -52.84569513 108.73447867 -42.1875 110 C-40.51244736 110.19338138 -38.83731738 110.38609414 -37.16210938 110.578125 C-33.10714216 111.04439745 -29.05332198 111.51964414 -25 112 C-24.37761154 97.17675277 -23.93460598 82.37195963 -23.8697052 67.53615189 C-23.85934521 65.27866414 -23.84546114 63.02122469 -23.83044434 60.76376343 C-23.82054243 59.248108 -23.81065476 57.73245249 -23.80078125 56.21679688 C-23.7934132 55.09107238 -23.7934132 55.09107238 -23.7858963 53.94260597 C-23.76228423 50.07486822 -23.7480162 46.20741393 -23.74951172 42.33959961 C-23.75029866 38.50626286 -23.72702252 34.67373084 -23.6876297 30.84060478 C-23.67723955 29.4026088 -23.6755937 27.96451939 -23.68328094 26.52650642 C-23.7435311 14.07375703 -23.7435311 14.07375703 -20.68701172 10.21386719 C-16.76418589 6.98179517 -16.76418589 6.98179517 -14.3359375 5.91796875 C-13.36527344 5.48000977 -13.36527344 5.48000977 -12.375 5.03320312 C-11.715 4.75412109 -11.055 4.47503906 -10.375 4.1875 C-9.70726562 3.88908203 -9.03953125 3.59066406 -8.3515625 3.28320312 C-5.5976955 2.06324004 -2.85834074 0.95278025 0 0 Z " fill="#DCFDF1" transform="translate(738,112)"/>
<path d="M0 0 C6.6 0 13.2 0 20 0 C15.73670449 2.13164775 12.38798276 2.42833642 7.75 2.625 C7.00492187 2.66367188 6.25984375 2.70234375 5.4921875 2.7421875 C3.6618476 2.83605108 1.83095857 2.91909718 0 3 C0.03758423 3.81780441 0.03758423 3.81780441 0.07592773 4.65213013 C0.33926948 10.3960106 0.5981094 16.14008214 0.85449219 21.88427734 C0.95037426 24.01974474 1.04735287 26.15516322 1.14550781 28.29052734 C1.67686914 39.86661341 2.18330033 51.40879971 2 63 C1.67 63 1.34 63 1 63 C-1.75272892 42.54244101 -2.37942822 22.60197933 -2 2 C-1.34 2 -0.68 2 0 2 C0 1.34 0 0.68 0 0 Z " fill="#C9F6E2" transform="translate(483,156)"/>
<path d="M0 0 C0.33 0 0.66 0 1 0 C1.26754413 16.58773579 1.26754413 16.58773579 -1.0078125 20.91796875 C-2.30753169 23.64533224 -2.34963089 25.99261783 -2.5 29 C-2.77857786 34.57155716 -2.77857786 34.57155716 -3.9609375 36.859375 C-5.55906324 40.15175435 -5.73748193 43.65434056 -6.125 47.25 C-6.21136719 47.99507813 -6.29773438 48.74015625 -6.38671875 49.5078125 C-6.59786867 51.33777846 -6.79984545 53.16879879 -7 55 C-8.485 55.495 -8.485 55.495 -10 56 C-10 58.64 -10 61.28 -10 64 C-11.485 64.495 -11.485 64.495 -13 65 C-12.54356702 60.89210316 -11.78248949 57.09440114 -10.625 53.125 C-9.18792933 48.00242752 -8.22260458 42.87802786 -7.34301758 37.63354492 C-5.99215441 29.70358968 -4.39998711 21.82265548 -2.8125 13.9375 C-2.67403656 13.24909027 -2.53557312 12.56068054 -2.39291382 11.85140991 C-1.59785902 7.90041598 -0.80008879 3.94997741 0 0 Z " fill="#C8F6E4" transform="translate(861,245)"/>
<path d="M0 0 C0.33 0 0.66 0 1 0 C1.19877676 21.00917431 1.19877676 21.00917431 0 30 C-18.95674937 30.35033007 -18.95674937 30.35033007 -26.1875 28.50390625 C-31.25954195 27.5951654 -36.43432705 27.56972994 -41.578125 27.42993164 C-42.77695312 27.38727173 -42.77695312 27.38727173 -44 27.34375 C-44.721875 27.32505859 -45.44375 27.30636719 -46.1875 27.28710938 C-48 27 -48 27 -50 25 C-39.2476574 24.65357706 -28.84569513 25.73447867 -18.1875 27 C-16.51244736 27.19338138 -14.83731738 27.38609414 -13.16210938 27.578125 C-9.10694412 28.04317608 -5.05372436 28.52183557 -1 29 C-0.67 19.43 -0.34 9.86 0 0 Z " fill="#C5F5E1" transform="translate(714,195)"/>
<path d="M0 0 C18.25008449 -0.40757013 18.25008449 -0.40757013 26 2 C27 3 27 3 27.03759766 5.66796875 C26.99683105 6.82941406 26.95606445 7.99085938 26.9140625 9.1875 C26.87023437 10.44304687 26.82640625 11.69859375 26.78125 12.9921875 C26.75546875 13.64928711 26.7296875 14.30638672 26.703125 14.98339844 C26.62533533 16.99134418 26.55818083 18.99944836 26.4921875 21.0078125 C26.12758196 30.87241804 26.12758196 30.87241804 25 32 C24.806908 33.96310199 24.61684034 35.92694998 24.4765625 37.89453125 C23.88855223 40.49237989 22.69756694 41.98016768 21 44 C21.12117187 42.98164063 21.24234375 41.96328125 21.3671875 40.9140625 C21.91725001 36.27671459 22.45983738 31.63851054 23 27 C23.09603516 26.17790039 23.19207031 25.35580078 23.29101562 24.50878906 C23.57225539 22.08955311 23.84923048 19.66986499 24.125 17.25 C24.21249512 16.50057129 24.29999023 15.75114258 24.39013672 14.97900391 C24.80866832 11.26948336 25 7.74646283 25 4 C12.625 2.515 12.625 2.515 0 1 C0 0.67 0 0.34 0 0 Z " fill="#C2F5E1" transform="translate(677,318)"/>
<path d="M0 0 C0.66 0 1.32 0 2 0 C-1.06640198 12.21181138 -4.70660459 24.65632285 -10.1328125 36.046875 C-11.11632697 38.26199768 -11.83895085 40.50012643 -12.5625 42.8125 C-13.58642002 46.03053434 -14.68567907 48.46526755 -17 51 C-16.16502628 46.03088809 -14.63093336 41.29694872 -13.125 36.5 C-12.86847656 35.65824219 -12.61195313 34.81648438 -12.34765625 33.94921875 C-10.97158431 29.55823541 -9.42295466 25.93210927 -7 22 C-6.61698965 20.34404349 -6.29040692 18.67467988 -6 17 C-5.22776878 14.23091714 -4.36302305 11.49194752 -3.5 8.75 C-3.27441406 8.0178125 -3.04882812 7.285625 -2.81640625 6.53125 C-1.1241998 1.1241998 -1.1241998 1.1241998 0 0 Z " fill="#D6F8EC" transform="translate(761,473)"/>
<path d="M0 0 C6.66149437 0.32761448 11.31531966 1.87865927 17.28515625 4.80078125 C20.49944731 6.22061917 23.56759795 6.91503371 27.02734375 7.4453125 C29 8 29 8 30.80078125 9.41796875 C33.77255846 11.55574809 36.7261777 12.24128846 40.25 13.1875 C41.51328125 13.53167969 42.7765625 13.87585937 44.078125 14.23046875 C45.04234375 14.48441406 46.0065625 14.73835938 47 15 C47 15.66 47 16.32 47 17 C41.77893902 16.4326402 37.20833199 15.17259154 32.3125 13.25 C31.26594238 12.849021 31.26594238 12.849021 30.19824219 12.43994141 C25.05541587 10.45513556 19.9803742 8.32168356 14.90625 6.16796875 C10.0191586 4.20393605 5.01833648 2.59269899 0 1 C0 0.67 0 0.34 0 0 Z " fill="#C7F5E6" transform="translate(462,43)"/>
<path d="M0 0 C0.33 0 0.66 0 1 0 C0.33001158 17.37349274 -3.12419238 33.34902063 -8 50 C-9.04204526 46.77733599 -8.92357197 44.6643941 -8.14453125 41.38671875 C-7.93594482 40.47865479 -7.7273584 39.57059082 -7.51245117 38.63500977 C-7.28146729 37.66233154 -7.0504834 36.68965332 -6.8125 35.6875 C-4.11097223 23.85798217 -1.97297896 11.97007507 0 0 Z " fill="#BCF3DD" transform="translate(697,364)"/>
<path d="M0 0 C-1.24716797 0.09087891 -1.24716797 0.09087891 -2.51953125 0.18359375 C-4.14955078 0.30927734 -4.14955078 0.30927734 -5.8125 0.4375 C-7.43091797 0.55931641 -7.43091797 0.55931641 -9.08203125 0.68359375 C-12.05989905 0.90212461 -12.05989905 0.90212461 -15 2 C-17.2838517 2.08378628 -19.570101 2.10729915 -21.85546875 2.09765625 C-22.84792351 2.09553383 -22.84792351 2.09553383 -23.86042786 2.09336853 C-25.96949828 2.08777996 -28.07846177 2.07522965 -30.1875 2.0625 C-31.61913909 2.05748352 -33.05077985 2.05292087 -34.48242188 2.04882812 C-37.98831588 2.0378143 -41.4941475 2.02055755 -45 2 C-45 1.67 -45 1.34 -45 1 C-40.44721106 0.56800589 -35.89399491 0.14094438 -31.34033203 -0.28173828 C-29.79430953 -0.42592189 -28.24840762 -0.57140527 -26.70263672 -0.71826172 C-24.46873657 -0.9302587 -22.23443092 -1.13743147 -20 -1.34375 C-19.31945557 -1.40937134 -18.63891113 -1.47499268 -17.93774414 -1.54260254 C-4.19027481 -2.79351654 -4.19027481 -2.79351654 0 0 Z " fill="#CAF5E4" transform="translate(530,222)"/>
<path d="M0 0 C3.77171831 0.08076198 7.54180596 0.19361435 11.3125 0.3125 C12.9202832 0.34633789 12.9202832 0.34633789 14.56054688 0.38085938 C16.10258789 0.4340332 16.10258789 0.4340332 17.67578125 0.48828125 C18.62364502 0.51446533 19.57150879 0.54064941 20.5480957 0.56762695 C23.35160394 1.06200245 24.25596964 1.80655626 26 4 C25.30551758 3.97905273 24.61103516 3.95810547 23.89550781 3.93652344 C5.99314831 3.22069942 5.99314831 3.22069942 -11 8 C-12.3254186 8.36353049 -13.65699955 8.70804338 -15 9 C-14.67 8.01 -14.34 7.02 -14 6 C-11.8203125 5.0859375 -11.8203125 5.0859375 -9.125 4.375 C-8.24070312 4.13523437 -7.35640625 3.89546875 -6.4453125 3.6484375 C-5.63835938 3.43445313 -4.83140625 3.22046875 -4 3 C-3.01 2.67 -2.02 2.34 -1 2 C-0.67 1.34 -0.34 0.68 0 0 Z " fill="#37C888" transform="translate(612,395)"/>
<path d="M0 0 C9.0022067 -0.42271231 17.21927919 0.5794646 26.0078125 2.265625 C30.65403416 3.15124904 35.28581986 3.62585872 40 4 C40 4.66 40 5.32 40 6 C26.41132463 5.63520335 13.3394682 3.54480906 0 1 C0 0.67 0 0.34 0 0 Z " fill="#C3F4E2" transform="translate(572,78)"/>
<path d="M0 0 C1.05888428 -0.00700928 1.05888428 -0.00700928 2.13916016 -0.01416016 C5.25920362 -0.00443573 7.70561018 0.13103673 10.6875 1.125 C10.6875 1.785 10.6875 2.445 10.6875 3.125 C9.47835937 3.07859375 8.26921875 3.0321875 7.0234375 2.984375 C-2.45527358 2.73570211 -10.40223768 3.11758368 -19.4296875 6.25 C-22.23857309 7.10256148 -24.40035991 7.29693447 -27.3125 7.125 C-24.72818109 3.82281473 -22.32733528 3.72295419 -18.3125 3.125 C-17.6525 2.465 -16.9925 1.805 -16.3125 1.125 C-10.9019595 0.0428919 -5.50442732 0.0259119 0 0 Z " fill="#E2FCF3" transform="translate(810.3125,21.875)"/>
<path d="M0 0 C-2.75682115 1.45494555 -5.44336833 2.53299426 -8.421875 3.4453125 C-19.88204291 7.05156071 -30.43749645 11.27922529 -41 17 C-41.66 17.33 -42.32 17.66 -43 18 C-43 17.01 -43 16.02 -43 15 C-42.34 15 -41.68 15 -41 15 C-41 14.34 -41 13.68 -41 13 C-39.58774074 12.32404685 -38.16997095 11.65959941 -36.75 11 C-35.56664062 10.443125 -35.56664062 10.443125 -34.359375 9.875 C-32 9 -32 9 -28 9 C-28 8.34 -28 7.68 -28 7 C-27.2265625 6.81824219 -26.453125 6.63648437 -25.65625 6.44921875 C-19.57653559 4.98196094 -13.80541518 3.32216607 -8 1 C-5.07175348 0.02391783 -3.04386724 -0.08226668 0 0 Z " fill="#37C485" transform="translate(760,105)"/>
<path d="M0 0 C0.66 0.33 1.32 0.66 2 1 C-2.30769231 4.93846154 -2.30769231 4.93846154 -5.8125 5.25 C-6.534375 5.1675 -7.25625 5.085 -8 5 C-8.33 5.99 -8.66 6.98 -9 8 C-11.35865894 9.1474557 -13.55714805 9.9088246 -16.125 10.4375 C-18.41940344 11.12582103 -19.4473502 12.21445273 -21 14 C-21 13.01 -21 12.02 -21 11 C-17.16028489 7.23572133 -12.68088615 5.27143362 -7.8125 3.1875 C-6.72678711 2.70120117 -6.72678711 2.70120117 -5.61914062 2.20507812 C-3.77365352 1.40336419 -1.88868858 0.69384675 0 0 Z " fill="#CEF5E3" transform="translate(738,112)"/>
<path d="M0 0 C0.33 0 0.66 0 1 0 C1.22786458 2.05078125 1.45572917 4.1015625 1.68359375 6.15234375 C1.81886614 8.01140229 1.81886614 8.01140229 3 9 C3.20896317 10.80811184 3.36780361 12.62216032 3.5 14.4375 C3.71419183 18.36434915 3.71419183 18.36434915 5 22 C5.23029956 24.37123246 5.41119942 26.74741943 5.5625 29.125 C5.64628906 30.40632813 5.73007812 31.68765625 5.81640625 33.0078125 C5.90728516 34.48894531 5.90728516 34.48894531 6 36 C2.96833681 30.65404082 2.40922475 24.53355697 1.3125 18.5625 C1.07466797 17.33466797 0.83683594 16.10683594 0.59179688 14.84179688 C0.37201172 13.65779297 0.15222656 12.47378906 -0.07421875 11.25390625 C-0.27619873 10.17439697 -0.47817871 9.0948877 -0.6862793 7.98266602 C-0.99714123 5.0271794 -0.75541481 2.85603 0 0 Z " fill="#BFF4E1" transform="translate(384,297)"/>
<path d="M0 0 C0.99 0.33 1.98 0.66 3 1 C4.01286753 9.69980864 4.10621544 18.25492893 4 27 C-0.50173174 19.33949011 -0.29894685 8.66945853 0 0 Z " fill="#C7F6E5" transform="translate(379,268)"/>
<path d="M0 0 C1.32 0 2.64 0 4 0 C4.12117187 0.71027344 4.24234375 1.42054687 4.3671875 2.15234375 C4.53476562 3.07144531 4.70234375 3.99054687 4.875 4.9375 C5.03742187 5.85402344 5.19984375 6.77054688 5.3671875 7.71484375 C5.57601562 8.46894531 5.78484375 9.22304688 6 10 C6.66 10.33 7.32 10.66 8 11 C8 12.32 8 13.64 8 15 C8.66 15 9.32 15 10 15 C13.44419134 24.41002278 13.44419134 24.41002278 13 29 C10.75431135 26.75431135 10.30880018 25.35939238 9.3125 22.375 C6.63588212 14.73188203 3.30039374 7.38880284 0 0 Z " fill="#CBF7E7" transform="translate(851,51)"/>
<path d="M0 0 C1.15818004 3.9393045 0.65009308 6.55245583 -0.3125 10.5625 C-0.57675781 11.69816406 -0.84101563 12.83382812 -1.11328125 14.00390625 C-2 17 -2 17 -4 20 C-4.5827119 21.54766142 -5.12264187 23.11192222 -5.625 24.6875 C-5.88539063 25.49574219 -6.14578125 26.30398437 -6.4140625 27.13671875 C-6.70410156 28.05904297 -6.70410156 28.05904297 -7 29 C-8.40998616 24.53215283 -7.11360214 21.08188525 -5.75 16.75 C-5.53214844 16.02425781 -5.31429688 15.29851562 -5.08984375 14.55078125 C-3.58696221 9.62027515 -1.85014489 4.81037671 0 0 Z " fill="#41CA8E" transform="translate(343,64)"/>
<path d="M0 0 C-3.30844857 1.1226421 -4.98536112 0.874852 -8.1875 -0.4375 C-16.83810469 -3.48487211 -24.10590766 -1.72626048 -32.86328125 0.44140625 C-35.77184517 0.95936969 -37.27985986 1.01417571 -40 0 C-26.90160586 -4.64982613 -12.61393721 -7.33901801 0 0 Z " fill="#53CD98" transform="translate(828,28)"/>
<path d="M0 0 C5.26064494 10.00851943 5.4593755 21.9579742 5 33 C4.67 33 4.34 33 4 33 C3.92652344 31.86111328 3.92652344 31.86111328 3.8515625 30.69921875 C3.73941406 29.20841797 3.73941406 29.20841797 3.625 27.6875 C3.55539062 26.70136719 3.48578125 25.71523438 3.4140625 24.69921875 C3.16134528 21.78471567 3.16134528 21.78471567 1 19 C0.68115234 16.9152832 0.68115234 16.9152832 0.5859375 14.55078125 C0.54726563 13.70322266 0.50859375 12.85566406 0.46875 11.98242188 C0.4378125 11.10134766 0.406875 10.22027344 0.375 9.3125 C0.33632813 8.41982422 0.29765625 7.52714844 0.2578125 6.60742188 C0.16359782 4.4051538 0.07798412 2.20289278 0 0 Z " fill="#C6F2E1" transform="translate(516,461)"/>
<path d="M0 0 C0.33 0 0.66 0 1 0 C1 1.65 1 3.3 1 5 C1.66 5 2.32 5 3 5 C2.95875 6.010625 2.9175 7.02125 2.875 8.0625 C3.00275352 12.08673585 3.85422163 15.15827252 5 19 C5.98965486 25.03689463 6.11268485 30.88997688 6 37 C5.67 37 5.34 37 5 37 C4.80664062 35.76765625 4.61328125 34.5353125 4.4140625 33.265625 C4.15106095 31.59374697 3.88803871 29.92187219 3.625 28.25 C3.48924561 27.38415283 3.35349121 26.51830566 3.21362305 25.6262207 C2.31529141 19.92014139 1.3646422 14.22652656 0.33203125 8.54296875 C-0.04270839 5.67290396 -0.05486951 2.8912013 0 0 Z " fill="#37C787" transform="translate(337,238)"/>
<path d="M0 0 C-7.60024064 5.14855011 -14.95773581 6.50968921 -24 6 C-20.94892911 2.94892911 -17.2174689 2.43648794 -13.125 1.3125 C-12.30902344 1.07466797 -11.49304688 0.83683594 -10.65234375 0.59179688 C-9.86214844 0.37201172 -9.07195313 0.15222656 -8.2578125 -0.07421875 C-7.5373877 -0.27619873 -6.81696289 -0.47817871 -6.07470703 -0.6862793 C-3.75715221 -1.03672151 -2.21426287 -0.71241772 0 0 Z " fill="#CEF6E5" transform="translate(771,104)"/>
<path d="M0 0 C-3.0399341 1.77382 -6.08225181 3.54351223 -9.125 5.3125 C-9.9809375 5.81201172 -10.836875 6.31152344 -11.71875 6.82617188 C-16.08589564 9.36247569 -20.4471261 11.81312778 -25 14 C-25 13.01 -25 12.02 -25 11 C-24.01 11 -23.02 11 -22 11 C-22 10.34 -22 9.68 -22 9 C-20.68 9 -19.36 9 -18 9 C-18 8.34 -18 7.68 -18 7 C-17.01 7 -16.02 7 -15 7 C-15 6.34 -15 5.68 -15 5 C-12.35261084 3.5393715 -11.10551666 3 -8 3 C-7.67 2.01 -7.34 1.02 -7 0 C-4.05610218 -1.17755913 -3.10046087 -1.03348696 0 0 Z " fill="#D4F8EC" transform="translate(690,80)"/>
<path d="M0 0 C3.27756325 2.18504217 3.57853379 2.8172183 4.82421875 6.359375 C5.13037109 7.22820312 5.43652344 8.09703125 5.75195312 8.9921875 C6.06068359 9.90226562 6.36941406 10.81234375 6.6875 11.75 C7.00783203 12.64460938 7.32816406 13.53921875 7.65820312 14.4609375 C9.26432755 19.10465759 10.4374502 23.01471848 10 28 C5.40038645 21.10057967 0 8.31212197 0 0 Z " fill="#D1F8EA" transform="translate(435,499)"/>
<path d="M0 0 C6.45892714 -0.40368295 11.06108578 0.4084738 17 3 C14 4 14 4 10 4 C9.01 5.485 9.01 5.485 8 7 C6.66382648 6.02471263 5.3311249 5.04466681 4 4.0625 C3.2575 3.51722656 2.515 2.97195313 1.75 2.41015625 C1.1725 1.94480469 0.595 1.47945313 0 1 C0 0.67 0 0.34 0 0 Z " fill="#41CE95" transform="translate(626,427)"/>
<path d="M0 0 C0 0.66 0 1.32 0 2 C-1.11375 2.309375 -2.2275 2.61875 -3.375 2.9375 C-6.7945155 3.82326483 -6.7945155 3.82326483 -9 5 C-11.87910588 5.23274209 -14.74146495 5.41972757 -17.625 5.5625 C-18.42679688 5.60568359 -19.22859375 5.64886719 -20.0546875 5.69335938 C-22.0362511 5.79951457 -24.01810271 5.90026855 -26 6 C-26 5.67 -26 5.34 -26 5 C-22.4182952 4.15956003 -18.83439357 3.32889101 -15.25 2.5 C-14.23421875 2.26152344 -13.2184375 2.02304688 -12.171875 1.77734375 C-11.1921875 1.55175781 -10.2125 1.32617188 -9.203125 1.09375 C-8.30239258 0.88427734 -7.40166016 0.67480469 -6.47363281 0.45898438 C-4 0 -4 0 0 0 Z " fill="#CCF6E4" transform="translate(577,104)"/>
<path d="M0 0 C0.33 0 0.66 0 1 0 C1.31915997 6.5427793 -0.46686188 12.02903158 -3 18 C-3.66 18 -4.32 18 -5 18 C-5 19.65 -5 21.3 -5 23 C-5.66 23 -6.32 23 -7 23 C-6.40336519 20.47717364 -5.79794859 17.9569878 -5.1875 15.4375 C-5.02185547 14.73302734 -4.85621094 14.02855469 -4.68554688 13.30273438 C-3.54083058 8.61587709 -2.01178987 4.38673952 0 0 Z " fill="#C9F5E4" transform="translate(823,402)"/>
<path d="M0 0 C2.84704767 1.42352383 2.99866666 3.02508436 4 6 C4.39877898 7.90788377 4.75303724 9.82560972 5.0625 11.75 C5.37598883 15.18223754 5.37598883 15.18223754 7 18 C7.23427778 20.01594582 7.41336124 22.038474 7.5625 24.0625 C7.64628906 25.16722656 7.73007812 26.27195312 7.81640625 27.41015625 C7.87699219 28.26480469 7.93757813 29.11945313 8 30 C5.95497212 26.93245818 5.33163018 24.85923976 4.4921875 21.30859375 C4.22792969 20.19935547 3.96367187 19.09011719 3.69140625 17.94726562 C3.42199219 16.78904297 3.15257812 15.63082031 2.875 14.4375 C2.59785156 13.27541016 2.32070313 12.11332031 2.03515625 10.91601562 C0 2.29918411 0 2.29918411 0 0 Z " fill="#3AC887" transform="translate(353,326)"/>
<path d="M0 0 C0.309375 0.639375 0.61875 1.27875 0.9375 1.9375 C1.8345163 3.93610821 1.8345163 3.93610821 3 5 C3.23419827 6.94049993 3.46573395 8.88138251 3.6796875 10.82421875 C3.97909771 13.24307337 3.97909771 13.24307337 5.0625 16.4375 C6.19084819 20.72522313 6.17965366 24.59848536 6 29 C5.67 29 5.34 29 5 29 C4.15628795 25.29394995 3.3268912 21.58483619 2.5 17.875 C2.26152344 16.82828125 2.02304687 15.7815625 1.77734375 14.703125 C1.55175781 13.68476563 1.32617188 12.66640625 1.09375 11.6171875 C0.88427734 10.68503418 0.67480469 9.75288086 0.45898438 8.79248047 C-0.03025569 5.81592307 -0.07770757 3.01116819 0 0 Z " fill="#36C282" transform="translate(515,451)"/>
<path d="M0 0 C0 0.66 0 1.32 0 2 C-4.80776947 5.98942573 -9.78198788 8.87363181 -16 10 C-17.34133652 9.70049167 -18.67669973 9.37116748 -20 9 C-2 0 -2 0 0 0 Z " fill="#C3F4DE" transform="translate(615,87)"/>
<path d="M0 0 C0.609375 1.77734375 0.609375 1.77734375 1 4 C-2.86512118 11.8682824 -2.86512118 11.8682824 -6 14 C-8.6875 14.1875 -8.6875 14.1875 -11 14 C-10.62488281 13.57589844 -10.24976563 13.15179687 -9.86328125 12.71484375 C-6.30335421 8.63482662 -3.08682003 4.4486524 0 0 Z " fill="#46CE92" transform="translate(737,541)"/>
<path d="M0 0 C0.99 0.33 1.98 0.66 3 1 C3.75003645 2.56825803 4.4810777 4.1486579 5.109375 5.76953125 C6.16962522 8.42480703 7.39885722 10.97984868 8.625 13.5625 C10.37748636 17.38323602 11.65644231 20.76278854 12 25 C9.31541707 23.65770854 9.26508084 22.47897232 8.25 19.6875 C6.24179239 14.41595502 3.77515392 9.46910753 1.171875 4.46875 C0 2 0 2 0 0 Z " fill="#CBF6E5" transform="translate(691,499)"/>
<path d="M0 0 C0.78632812 0.03996094 1.57265625 0.07992187 2.3828125 0.12109375 C7.27963629 0.42206133 11.58553415 1.22843627 16.25 2.75 C15.92 3.41 15.59 4.07 15.25 4.75 C14.239375 4.42 13.22875 4.09 12.1875 3.75 C3.24787009 1.50314115 -6.71674672 2.27518314 -15.75 3.75 C-14.8528125 3.316875 -14.8528125 3.316875 -13.9375 2.875 C-8.71789838 0.19063345 -5.89780334 -0.40772595 0 0 Z " fill="#37C988" transform="translate(782.75,99.25)"/>
<path d="M0 0 C2.97032674 4.4554901 3.30270231 9.21495765 4.1875 14.4375 C4.37763672 15.48744141 4.56777344 16.53738281 4.76367188 17.61914062 C4.93833984 18.63041016 5.11300781 19.64167969 5.29296875 20.68359375 C5.4530542 21.60712646 5.61313965 22.53065918 5.77807617 23.48217773 C5.99675321 25.9631637 5.76683734 27.64994803 5 30 C2.9670412 26.95056181 2.61325771 25.5970952 2.1484375 22.0703125 C1.95507812 20.62978516 1.95507812 20.62978516 1.7578125 19.16015625 C1.63148438 18.15855469 1.50515625 17.15695312 1.375 16.125 C1.2409375 15.13113281 1.106875 14.13726562 0.96875 13.11328125 C0.39022997 8.70354186 -0.07498163 4.45390857 0 0 Z " fill="#B4EED6" transform="translate(338,253)"/>
<path d="M0 0 C2.51594504 7.47937403 -2.79354549 16.2982212 -6 23 C-6.33 23.66 -6.66 24.32 -7 25 C-7.66 25 -8.32 25 -9 25 C-7.45815529 19.29984683 -5.69046521 14.11022383 -2.91796875 8.89453125 C-1.52313065 6.01582283 -0.77446904 3.09787614 0 0 Z " fill="#52CB96" transform="translate(750,509)"/>
<path d="M0 0 C0.66 0 1.32 0 2 0 C0.42467319 7.85428897 -1.27072787 15.46201031 -4 23 C-4.33 23 -4.66 23 -5 23 C-3.76595745 3.76595745 -3.76595745 3.76595745 0 0 Z " fill="#CFF6E8" transform="translate(775,426)"/>
<path d="M0 0 C-0.99 0 -1.98 0 -3 0 C-3 0.66 -3 1.32 -3 2 C-4.14339844 2.27714844 -5.28679688 2.55429688 -6.46484375 2.83984375 C-7.95577465 3.20554378 -9.44665761 3.57143929 -10.9375 3.9375 C-11.69224609 4.11990234 -12.44699219 4.30230469 -13.22460938 4.49023438 C-16.91279821 5.13839179 -16.91279821 5.13839179 -20 7 C-22.67058851 7.14115161 -25.32432238 7.04247107 -28 7 C-28 6.67 -28 6.34 -28 6 C-27.06933716 5.73521851 -27.06933716 5.73521851 -26.11987305 5.46508789 C-23.30888435 4.66491784 -20.49818942 3.86372066 -17.6875 3.0625 C-16.71103516 2.78470703 -15.73457031 2.50691406 -14.72851562 2.22070312 C-13.79072266 1.95322266 -12.85292969 1.68574219 -11.88671875 1.41015625 C-10.59060669 1.04096069 -10.59060669 1.04096069 -9.26831055 0.66430664 C-3.39857132 -1.05472903 -3.39857132 -1.05472903 0 0 Z " fill="#4AC991" transform="translate(556,145)"/>
<path d="M0 0 C-5.61 2.97 -11.22 5.94 -17 9 C-17 8.01 -17 7.02 -17 6 C-13.35022743 3.09677182 -11.74147821 2 -7 2 C-7 1.34 -7 0.68 -7 0 C-4 -1 -4 -1 0 0 Z " fill="#D2F9EA" transform="translate(651,102)"/>
<path d="M0 0 C0.33 0 0.66 0 1 0 C1 2.64 1 5.28 1 8 C0.01 8.495 0.01 8.495 -1 9 C-1.54134931 10.92046168 -1.54134931 10.92046168 -1.875 13.1875 C-2.76077132 17.6592165 -4.23616803 20.40701844 -7 24 C-8 22 -8 22 -7.36328125 20.0390625 C-7.01652344 19.24242187 -6.66976562 18.44578125 -6.3125 17.625 C-3.88868073 11.8483715 -1.92474171 5.9585089 0 0 Z " fill="#4BCA91" transform="translate(759,484)"/>
<path d="M0 0 C2 1 2 1 2.8515625 2.7578125 C5.41167859 10.59331933 5.29389902 17.8361383 5 26 C4.67 26 4.34 26 4 26 C2.68 17.42 1.36 8.84 0 0 Z " fill="#C4F6E4" transform="translate(866,91)"/>
<path d="M0 0 C-4.02167317 2.96837781 -7.00088076 4.52389341 -12 5 C-12 5.99 -12 6.98 -12 8 C-13.98 8 -15.96 8 -18 8 C-14.03128312 3.12930201 -6.40129161 -2.41530216 0 0 Z " fill="#CCF5E5" transform="translate(607,402)"/>
<path d="M0 0 C4.48525648 0.656379 8.66914029 1.70074209 13 3 C13 3.66 13 4.32 13 5 C13.66 5 14.32 5 15 5 C15 5.99 15 6.98 15 8 C15.66 8 16.32 8 17 8 C17 8.66 17 9.32 17 10 C13.75444318 8.40029427 10.56000609 6.71698441 7.375 5 C6.41335938 4.484375 5.45171875 3.96875 4.4609375 3.4375 C2 2 2 2 0 0 Z " fill="#3FCF91" transform="translate(651,404)"/>
<path d="M0 0 C1.9295008 5.98145248 -0.13702768 12.0749079 -2.625 17.625 C-3.07875 18.40875 -3.5325 19.1925 -4 20 C-4.66 20 -5.32 20 -6 20 C-5.36757331 15.27497299 -4.08186437 11.09429803 -2.4375 6.625 C-2.20353516 5.98433594 -1.96957031 5.34367187 -1.72851562 4.68359375 C-1.15700381 3.1206839 -0.57915771 1.56009273 0 0 Z " fill="#BBF3DC" transform="translate(536,502)"/>
<path d="M0 0 C0.33 0 0.66 0 1 0 C1.33 3.96 1.66 7.92 2 12 C1.34 12 0.68 12 0 12 C0.061875 13.258125 0.12375 14.51625 0.1875 15.8125 C0.32560581 18.62065146 0.35160213 19.59025178 -1.51171875 21.76171875 C-2.00285156 22.17035156 -2.49398437 22.57898438 -3 23 C-2.85831863 21.56208484 -2.71148957 20.1246763 -2.5625 18.6875 C-2.48128906 17.88699219 -2.40007813 17.08648437 -2.31640625 16.26171875 C-2 14 -2 14 -1 11 C-0.77820215 9.10787263 -0.59385985 7.21115528 -0.4375 5.3125 C-0.31181641 3.82169922 -0.31181641 3.82169922 -0.18359375 2.30078125 C-0.12300781 1.54152344 -0.06242188 0.78226562 0 0 Z " fill="#42C68A" transform="translate(521,483)"/>
<path d="M0 0 C0.99 0.33 1.98 0.66 3 1 C3.20496094 2.07121094 3.40992188 3.14242188 3.62109375 4.24609375 C3.89302709 5.64326851 4.16517352 7.04040181 4.4375 8.4375 C4.57220703 9.14455078 4.70691406 9.85160156 4.84570312 10.58007812 C5.28406898 14.08429264 5.28406898 14.08429264 7 17 C7.04092937 19.33297433 7.04241723 21.66705225 7 24 C6.67 24 6.34 24 6 24 C5.18360682 21.12605502 4.37177859 18.2509487 3.5625 15.375 C3.33240234 14.56675781 3.10230469 13.75851562 2.86523438 12.92578125 C1.6612128 8.6331826 0.62287748 4.42457793 0 0 Z " fill="#B8F2DA" transform="translate(405,403)"/>
<path d="M0 0 C5.75813575 -0.10469338 11.29014022 0.25983299 17 1 C17 1.66 17 2.32 17 3 C18.32 3.33 19.64 3.66 21 4 C17.95501389 4.95827504 15.97726069 4.99431517 12.890625 4.22265625 C11.75947266 3.94711914 11.75947266 3.94711914 10.60546875 3.66601562 C9.82816406 3.46685547 9.05085937 3.26769531 8.25 3.0625 C7.06083984 2.76956055 7.06083984 2.76956055 5.84765625 2.47070312 C3.89637115 1.98875921 1.94789217 1.49547912 0 1 C0 0.67 0 0.34 0 0 Z " fill="#C7F3E5" transform="translate(538,70)"/>
<path d="M0 0 C0.33 0 0.66 0 1 0 C1.44517664 5.34211974 0.61823741 8.4496252 -2.02734375 13.10546875 C-3.09842711 14.98131857 -3.09842711 14.98131857 -3.44140625 17.17578125 C-3.62574219 17.77777344 -3.81007813 18.37976563 -4 19 C-4.99 19.33 -5.98 19.66 -7 20 C-4.80962826 13.27954125 -2.44234339 6.63275997 0 0 Z " fill="#C7F5E2" transform="translate(523,536)"/>
<path d="M0 0 C0 0.66 0 1.32 0 2 C-0.99 2.33 -1.98 2.66 -3 3 C-4.87397964 5.01452812 -6.56099123 7.13860528 -8.28125 9.28515625 C-10 11 -10 11 -13 11 C-11.52841629 7.38502261 -9.58537669 5.59408489 -6.5 3.25 C-5.7059375 2.63640625 -4.911875 2.0228125 -4.09375 1.390625 C-2 0 -2 0 0 0 Z " fill="#CDF5E5" transform="translate(401,115)"/>
<path d="M0 0 C-2.43218059 1.19963643 -4.86970578 2.38484438 -7.3125 3.5625 C-8.00279297 3.90474609 -8.69308594 4.24699219 -9.40429688 4.59960938 C-14.66015625 7.11328125 -14.66015625 7.11328125 -18 6 C-17.34 6 -16.68 6 -16 6 C-15.67 5.01 -15.34 4.02 -15 3 C-10.49671591 0.05554501 -5.1882829 -1.60427169 0 0 Z " fill="#D6F9ED" transform="translate(622,117)"/>
<path d="M0 0 C0.28875 0.639375 0.5775 1.27875 0.875 1.9375 C1.82823451 4.15206079 1.82823451 4.15206079 4 5 C4.66796875 7.36328125 4.66796875 7.36328125 5.1875 10.3125 C5.36667969 11.27800781 5.54585937 12.24351562 5.73046875 13.23828125 C5.98980064 15.89549348 5.71347949 17.47737648 5 20 C3.96703956 17.04575985 2.95073045 14.08605927 1.9375 11.125 C1.64294922 10.28324219 1.34839844 9.44148437 1.04492188 8.57421875 C0.77099609 7.76855469 0.49707031 6.96289062 0.21484375 6.1328125 C-0.04176025 5.38918457 -0.29836426 4.64555664 -0.56274414 3.87939453 C-1 2 -1 2 0 0 Z " fill="#33C986" transform="translate(694,554)"/>
<path d="M0 0 C2.14291618 8.04406471 -0.32893008 14.77738336 -4 22 C-5.0354051 18.8151065 -4.94040666 16.86968126 -4.00390625 13.671875 C-3.66069336 12.47304688 -3.66069336 12.47304688 -3.31054688 11.25 C-3.06369141 10.425 -2.81683594 9.6 -2.5625 8.75 C-2.31951172 7.90953125 -2.07652344 7.0690625 -1.82617188 6.203125 C-1.22626051 4.13284266 -0.61429181 2.06606103 0 0 Z " fill="#4FCB93" transform="translate(781,410)"/>
<path d="M0 0 C-2.7881022 1.5066972 -5.58103958 3.00419804 -8.375 4.5 C-9.1690625 4.92925781 -9.963125 5.35851563 -10.78125 5.80078125 C-11.92207031 6.40986328 -11.92207031 6.40986328 -13.0859375 7.03125 C-13.7876709 7.40830078 -14.4894043 7.78535156 -15.21240234 8.17382812 C-17 9 -17 9 -19 9 C-19 8.34 -19 7.68 -19 7 C-17.68 6.67 -16.36 6.34 -15 6 C-15 5.34 -15 4.68 -15 4 C-12.03 3.34 -9.06 2.68 -6 2 C-6 1.34 -6 0.68 -6 0 C-3.50907189 -1.24546405 -2.58919267 -0.7767578 0 0 Z " fill="#CDF8E9" transform="translate(768,36)"/>
<path d="M0 0 C3.375 0.3125 3.375 0.3125 7 1 C7.66 1.99 8.32 2.98 9 4 C9.845625 4.28875 10.69125 4.5775 11.5625 4.875 C12.366875 5.24625 13.17125 5.6175 14 6 C14.8125 8.625 14.8125 8.625 15 11 C14.50371094 10.61328125 14.00742187 10.2265625 13.49609375 9.828125 C9.15116853 6.49729049 4.81370839 3.60742538 0 1 C0 0.67 0 0.34 0 0 Z " fill="#C6F5E1" transform="translate(641,429)"/>
<path d="M0 0 C0.33 0 0.66 0 1 0 C0.64989059 10.15317287 0.64989059 10.15317287 -2.0625 13.6875 C-2.701875 14.120625 -3.34125 14.55375 -4 15 C-5 13 -5 13 -4.00390625 9.9609375 C-3.52824219 8.77757812 -3.05257812 7.59421875 -2.5625 6.375 C-2.08941406 5.18648438 -1.61632812 3.99796875 -1.12890625 2.7734375 C-0.75636719 1.85820312 -0.38382813 0.94296875 0 0 Z " fill="#C6F4E2" transform="translate(546,477)"/>
<path d="M0 0 C3.29322227 1.64661113 3.82844345 4.89615151 5.11328125 8.2109375 C6.37078618 12.16626138 6.7332246 15.86498133 7 20 C4.28390082 17.28390082 3.53079778 14.13404955 2.375 10.5625 C2.14554687 9.88123047 1.91609375 9.19996094 1.6796875 8.49804688 C0.70957387 5.55017182 0 3.12333158 0 0 Z " fill="#3EC589" transform="translate(394,467)"/>
<path d="M0 0 C0.66 0.33 1.32 0.66 2 1 C0.74039765 3.51920469 -0.39605735 4.78152832 -3.0625 5.74609375 C-7.07582417 6.70321876 -9.99858846 7.26696174 -14 6 C-11.71220962 4.96959833 -9.42048864 3.95047982 -7.125 2.9375 C-6.47402344 2.64294922 -5.82304688 2.34839844 -5.15234375 2.04492188 C-3.45989459 1.30338487 -1.73131425 0.64560999 0 0 Z " fill="#48CE92" transform="translate(588,131)"/>
<path d="M0 0 C1.32 0.33 2.64 0.66 4 1 C2.8966898 2.58393026 1.79231456 4.16711868 0.6875 5.75 C0.07261719 6.63171875 -0.54226563 7.5134375 -1.17578125 8.421875 C-2.74833065 10.64432169 -4.35368512 12.83192994 -6 15 C-5.67 13.02 -5.34 11.04 -5 9 C-4.34 9 -3.68 9 -3 9 C-2.87625 8.2575 -2.7525 7.515 -2.625 6.75 C-2.04513299 4.19858515 -1.26291261 2.2732427 0 0 Z " fill="#D5F9EB" transform="translate(351,45)"/>
<path d="M0 0 C0.33 0 0.66 0 1 0 C1.53107314 2.74837849 2.05015881 5.49812375 2.5625 8.25 C2.71396484 9.02730469 2.86542969 9.80460937 3.02148438 10.60546875 C3.16005859 11.35957031 3.29863281 12.11367188 3.44140625 12.890625 C3.57232666 13.58188477 3.70324707 14.27314453 3.83813477 14.98535156 C4.01710362 17.21287942 3.65206197 18.87506962 3 21 C0.9859044 17.9788566 0.73163404 17.19339983 0.5859375 13.76953125 C0.54726563 12.96708984 0.50859375 12.16464844 0.46875 11.33789062 C0.4378125 10.50451172 0.406875 9.67113281 0.375 8.8125 C0.33632813 7.96751953 0.29765625 7.12253906 0.2578125 6.25195312 C0.16363721 4.16832476 0.08073325 2.08419247 0 0 Z " fill="#C5F1DC" transform="translate(502,393)"/>
<path d="M0 0 C0.66 0 1.32 0 2 0 C1.48914188 6.43681228 0.27057103 11.95942424 -2 18 C-3.09267403 14.67580857 -2.88036715 12.39397842 -2.125 9 C-1.94195313 8.154375 -1.75890625 7.30875 -1.5703125 6.4375 C-1.0669283 4.28604974 -0.54521161 2.1411947 0 0 Z " fill="#41D08F" transform="translate(851,288)"/>
<path d="M0 0 C1.91562291 2.87343437 2.29210899 3.77503541 2.6328125 7.01171875 C2.71660156 7.76904297 2.80039062 8.52636719 2.88671875 9.30664062 C2.96535156 10.09232422 3.04398438 10.87800781 3.125 11.6875 C3.21136719 12.48478516 3.29773438 13.28207031 3.38671875 14.10351562 C3.59848472 16.06823326 3.80021473 18.03402796 4 20 C2 19 2 19 1.3671875 17.28515625 C0.07543921 11.45178501 -0.2241478 5.96482204 0 0 Z " fill="#CCF5E4" transform="translate(815,128)"/>
<path d="M0 0 C-1.15173355 2.46800047 -2.04783565 4.04783565 -4 6 C-6.1640625 6.4140625 -6.1640625 6.4140625 -8.625 6.625 C-9.44226563 6.69976562 -10.25953125 6.77453125 -11.1015625 6.8515625 C-11.72804688 6.90054688 -12.35453125 6.94953125 -13 7 C-10.84545751 4.64283596 -8.80280126 3.21033856 -5.9375 1.8125 C-5.24527344 1.46832031 -4.55304687 1.12414062 -3.83984375 0.76953125 C-2 0 -2 0 0 0 Z " fill="#42CE8E" transform="translate(670,92)"/>
<path d="M0 0 C2.05710856 3.08566284 2.78346093 5.36985312 3.6875 8.9375 C3.95949219 9.97777344 4.23148438 11.01804687 4.51171875 12.08984375 C4.97828785 14.8705956 4.93894816 16.38480882 4 19 C4 18.34 4 17.68 4 17 C3.34 17 2.68 17 2 17 C1.66151348 15.10507994 1.32943089 13.20901534 1 11.3125 C0.814375 10.25675781 0.62875 9.20101563 0.4375 8.11328125 C0.04931926 5.35095938 -0.08259976 2.78257957 0 0 Z " fill="#CBF3E3" transform="translate(508,427)"/>
<path d="M0 0 C0.99 0 1.98 0 3 0 C2.67 2.64 2.34 5.28 2 8 C-1.81684226 6.44499019 -4.19195732 3.96404505 -7 1 C-3 1 -3 1 -1.25 2.5 C-0.8375 2.995 -0.425 3.49 0 4 C0 2.68 0 1.36 0 0 Z " fill="#41CE91" transform="translate(683,420)"/>
<path d="M0 0 C0.66 0 1.32 0 2 0 C1.54915507 2.58484426 1.08964737 5.1676329 0.625 7.75 C0.49867188 8.47960937 0.37234375 9.20921875 0.2421875 9.9609375 C-0.41834074 13.5938428 -1.07447662 16.8187005 -3 20 C-3.35482211 12.78528371 -2.1591338 6.87581298 0 0 Z " fill="#35CA86" transform="translate(690,394)"/>
<path d="M0 0 C0.33 0 0.66 0 1 0 C1.24322543 7.05353749 0.73943655 12.39884772 -4 18 C-3.35155914 13.80716882 -2.48783354 9.73500079 -1.4375 5.625 C-1.16808594 4.56539063 -0.89867187 3.50578125 -0.62109375 2.4140625 C-0.31365234 1.21910156 -0.31365234 1.21910156 0 0 Z " fill="#BFF5DF" transform="translate(838,348)"/>
<path d="M0 0 C0.33 0 0.66 0 1 0 C3.29612756 14.59681093 3.29612756 14.59681093 3 22 C2.67 22 2.34 22 2 22 C2 20.02 2 18.04 2 16 C1.34 16 0.68 16 0 16 C0 10.72 0 5.44 0 0 Z " fill="#BBEFD9" transform="translate(493,337)"/>
<path d="M0 0 C0 0.33 0 0.66 0 1 C-10.395 2.485 -10.395 2.485 -21 4 C-20 2 -20 2 -16.6875 0.875 C-11.17531978 -0.41017135 -5.62450319 -0.1687351 0 0 Z " fill="#BEF5DF" transform="translate(514,319)"/>
<path d="M0 0 C1.11581881 4.46327524 0.68986512 5.60761606 -0.9375 9.75 C-1.31777344 10.73484375 -1.69804687 11.7196875 -2.08984375 12.734375 C-2.39019531 13.48203125 -2.69054687 14.2296875 -3 15 C-3.66 15 -4.32 15 -5 15 C-5 15.99 -5 16.98 -5 18 C-5.66 17.67 -6.32 17.34 -7 17 C-4.69 11.39 -2.38 5.78 0 0 Z " fill="#4CCA92" transform="translate(512,521)"/>
<path d="M0 0 C1.68178661 2.52267991 2.90106742 4.81091823 4.125 7.5625 C4.47820313 8.34753906 4.83140625 9.13257813 5.1953125 9.94140625 C6 12 6 12 6 14 C5.34 14 4.68 14 4 14 C4 13.01 4 12.02 4 11 C2.68 10.67 1.36 10.34 0 10 C0 6.7 0 3.4 0 0 Z " fill="#C8F3E1" transform="translate(670,490)"/>
<path d="M0 0 C0.33 0.99 0.66 1.98 1 3 C-0.5625 5.625 -0.5625 5.625 -3 8 C-6.25 8.8125 -6.25 8.8125 -9 9 C-6 6 -3 3 0 0 Z " fill="#CEF4E5" transform="translate(742,598)"/>
<path d="M0 0 C3.81878552 5.72817828 5.27872006 12.21996859 6 19 C5.01 18.34 4.02 17.68 3 17 C2.59802999 14.67750658 2.27313343 12.34114367 2 10 C1.649375 8.948125 1.29875 7.89625 0.9375 6.8125 C0 4 0 4 0 0 Z " fill="#BEF0DC" transform="translate(678,510)"/>
<path d="M0 0 C1.99170912 2.98756368 3.02907979 5.55424386 4.1875 8.9375 C4.55230469 9.97777344 4.91710937 11.01804687 5.29296875 12.08984375 C5.98896034 14.95456052 6.02529944 16.28981357 5 19 C1.57242276 12.92384035 0 6.94801054 0 0 Z " fill="#47CD8F" transform="translate(420,457)"/>
<path d="M0 0 C1.31538327 4.15771494 0.34433068 6.8879297 -1 11 C-1.66 11 -2.32 11 -3 11 C-3.33 12.98 -3.66 14.96 -4 17 C-5.6852084 12.92320841 -4.16939007 10.16924407 -2.5625 6.25 C-2.08941406 5.07953125 -1.61632812 3.9090625 -1.12890625 2.703125 C-0.75636719 1.81109375 -0.38382812 0.9190625 0 0 Z " fill="#C4F4DE" transform="translate(380,137)"/>
<path d="M0 0 C-0.9375 1.9375 -0.9375 1.9375 -3 4 C-5.9858081 4.66174825 -8.94861869 4.87205948 -12 5 C-3.89473684 -1.94736842 -3.89473684 -1.94736842 0 0 Z " fill="#38C78A" transform="translate(650,104)"/>
<path d="M0 0 C-2.9134075 1.54753747 -5.78327253 2.66269331 -8.9375 3.625 C-9.77152344 3.88539062 -10.60554687 4.14578125 -11.46484375 4.4140625 C-14.06464605 5.01494131 -16.34163909 5.10462243 -19 5 C-16.51845756 1.96052688 -14.44372324 1.42454194 -10.625 0.8125 C-9.68914063 0.65394531 -8.75328125 0.49539062 -7.7890625 0.33203125 C-5.15948884 0.01898677 -2.64476541 -0.06251264 0 0 Z " fill="#C8F7E6" transform="translate(802,24)"/>
<path d="M0 0 C1.02866653 3.20415723 1.05483179 3.86017895 -0.25 7.1875 C-2 10 -2 10 -5 11 C-5 11.99 -5 12.98 -5 14 C-5.66 14 -6.32 14 -7 14 C-5.23570801 9.02790438 -2.6060834 4.56561939 0 0 Z " fill="#C3F4E0" transform="translate(757,575)"/>
<path d="M0 0 C6.49142565 0.42335385 11.33492989 2.91099799 17 6 C13.36203747 7.33363823 11.42624782 6.65099829 7.9375 5.125 C7.08027344 4.75632812 6.22304688 4.38765625 5.33984375 4.0078125 C4.56769531 3.67523438 3.79554688 3.34265625 3 3 C2.01 2.67 1.02 2.34 0 2 C0 1.34 0 0.68 0 0 Z " fill="#CCF5E3" transform="translate(639,400)"/>
<path d="M0 0 C1.21173548 3.58327493 0.85034764 6.42285625 0.25 10.125 C0.09015625 11.17945313 -0.0696875 12.23390625 -0.234375 13.3203125 C-1 16 -1 16 -4 18 C-3.41632611 11.69632197 -1.95928381 6.01339937 0 0 Z " fill="#C1F4E0" transform="translate(828,384)"/>
<path d="M0 0 C0.66 0 1.32 0 2 0 C1.42365861 4.75481646 -0.55068521 7.97048212 -3 12 C-3.88336837 9.5332355 -4.1312406 8.36140628 -3.22265625 5.859375 C-2.83980469 5.16328125 -2.45695313 4.4671875 -2.0625 3.75 C-1.68222656 3.04359375 -1.30195312 2.3371875 -0.91015625 1.609375 C-0.60980469 1.07828125 -0.30945313 0.5471875 0 0 Z " fill="#D0F7E9" transform="translate(739,532)"/>
<path d="M0 0 C0.33 1.32 0.66 2.64 1 4 C0.360625 4.226875 -0.27875 4.45375 -0.9375 4.6875 C-3.27193661 5.85250896 -3.27193661 5.85250896 -3.75 8.625 C-3.8325 9.40875 -3.915 10.1925 -4 11 C-4.99 11 -5.98 11 -7 11 C-5.5140084 6.40693504 -3.14985318 3.56430755 0 0 Z " fill="#CCF5E5" transform="translate(575,423)"/>
<path d="M0 0 C0.99 0.99 1.98 1.98 3 3 C-3.27 2.67 -9.54 2.34 -16 2 C-16 1.67 -16 1.34 -16 1 C-3.70138889 -0.36111111 -3.70138889 -0.36111111 0 0 Z " fill="#58D29A" transform="translate(635,396)"/>
<path d="M0 0 C1.32 0.66 2.64 1.32 4 2 C2.04350603 2.83764268 0.08474444 3.66999059 -1.875 4.5 C-3.51082031 5.19609375 -3.51082031 5.19609375 -5.1796875 5.90625 C-8 7 -8 7 -10 7 C-10 6.34 -10 5.68 -10 5 C-8.70990357 4.49596232 -7.41786211 3.99690074 -6.125 3.5 C-5.04605469 3.08234375 -5.04605469 3.08234375 -3.9453125 2.65625 C-2 2 -2 2 0 2 C0 1.34 0 0.68 0 0 Z " fill="#33CF8C" transform="translate(595,93)"/>
<path d="M0 0 C0.99 0.33 1.98 0.66 3 1 C0.69 5.29 -1.62 9.58 -4 14 C-5 10 -5 10 -4.0625 7.75 C-3.5365625 6.88375 -3.5365625 6.88375 -3 6 C-2.34 6 -1.68 6 -1 6 C-0.67 4.02 -0.34 2.04 0 0 Z " fill="#D1F8E9" transform="translate(494,555)"/>
<path d="M0 0 C-4.34242429 4.34242429 -8.13551546 4.7444669 -14 5 C-10.63156097 2.05261585 -4.40469071 -2.20234535 0 0 Z " fill="#BFF1DC" transform="translate(740,113)"/>
<path d="M0 0 C1.32 0 2.64 0 4 0 C4.12117187 0.71027344 4.24234375 1.42054687 4.3671875 2.15234375 C4.53476562 3.07144531 4.70234375 3.99054687 4.875 4.9375 C5.03742187 5.85402344 5.19984375 6.77054688 5.3671875 7.71484375 C5.57601562 8.46894531 5.78484375 9.22304688 6 10 C6.66 10.33 7.32 10.66 8 11 C7.01 11 6.02 11 5 11 C3.35 7.37 1.7 3.74 0 0 Z " fill="#D7F9EC" transform="translate(851,51)"/>
<path d="M0 0 C1.55347992 4.14261313 0.88763731 7.76665282 0 12 C-2.05078125 13.2421875 -2.05078125 13.2421875 -4 14 C-3.52188823 12.22888156 -3.0424722 10.45811517 -2.5625 8.6875 C-2.29566406 7.70136719 -2.02882813 6.71523438 -1.75390625 5.69921875 C-1.21920575 3.78482474 -0.62855462 1.88566385 0 0 Z " fill="#C9F5E2" transform="translate(800,470)"/>
<path d="M0 0 C0.66 0 1.32 0 2 0 C2.50744423 1.89385437 3.00564574 3.79018666 3.5 5.6875 C3.7784375 6.74324219 4.056875 7.79898437 4.34375 8.88671875 C4.9391715 11.71142672 5.12786492 14.12836708 5 17 C3.42470031 14.04802536 2.33195245 11.14184078 1.375 7.9375 C1.11460937 7.08027344 0.85421875 6.22304688 0.5859375 5.33984375 C0 3 0 3 0 0 Z " fill="#D1F9EA" transform="translate(412,427)"/>
<path d="M0 0 C0.66 0.33 1.32 0.66 2 1 C0.72807637 3.54384726 -0.19948469 3.69368156 -2.8125 4.6875 C-3.49957031 4.95949219 -4.18664062 5.23148438 -4.89453125 5.51171875 C-7.29376496 6.06812731 -8.6894364 5.77364938 -11 5 C-9.730447 4.35165346 -8.45930294 3.70642185 -7.1875 3.0625 C-6.47980469 2.70285156 -5.77210938 2.34320313 -5.04296875 1.97265625 C-3 1 -3 1 0 0 Z " fill="#49CA93" transform="translate(607,123)"/>
<path d="M0 0 C0.66 0.33 1.32 0.66 2 1 C-0.43044383 4.64566574 -1.82388959 4.9977335 -6 6 C-8.1953125 5.546875 -8.1953125 5.546875 -10 5 C-8.38007835 4.13624104 -6.75388139 3.28424146 -5.125 2.4375 C-4.22007812 1.96183594 -3.31515625 1.48617187 -2.3828125 0.99609375 C-1.20332031 0.50302734 -1.20332031 0.50302734 0 0 Z " fill="#51CF96" transform="translate(628,113)"/>
<path d="M0 0 C4.48525648 0.656379 8.66914029 1.70074209 13 3 C13 3.66 13 4.32 13 5 C8.02693484 4.50269348 4.36200187 3.44697666 0 1 C0 0.67 0 0.34 0 0 Z " fill="#D3F8EC" transform="translate(496,55)"/>
<path d="M0 0 C-1 3 -1 3 -4 5 C-6.6875 5.125 -6.6875 5.125 -9 5 C-9 5.66 -9 6.32 -9 7 C-10.32 6.67 -11.64 6.34 -13 6 C-11.21118264 4.99491199 -9.41885304 3.99607264 -7.625 3 C-6.62726562 2.443125 -5.62953125 1.88625 -4.6015625 1.3125 C-2 0 -2 0 0 0 Z " fill="#43CB91" transform="translate(738,52)"/>
<path d="M0 0 C0.66 0.33 1.32 0.66 2 1 C0.72807637 3.54384726 -0.19948469 3.69368156 -2.8125 4.6875 C-3.49957031 4.95949219 -4.18664062 5.23148438 -4.89453125 5.51171875 C-7.29376496 6.06812731 -8.6894364 5.77364938 -11 5 C-9.730447 4.35165346 -8.45930294 3.70642185 -7.1875 3.0625 C-6.47980469 2.70285156 -5.77210938 2.34320313 -5.04296875 1.97265625 C-3 1 -3 1 0 0 Z " fill="#48CC95" transform="translate(776,32)"/>
<path d="M0 0 C0.9507007 3.02866082 1.02159552 5.05030877 0.25 8.125 C0.09015625 8.80820312 -0.0696875 9.49140625 -0.234375 10.1953125 C-1 12 -1 12 -4 14 C-3.52372025 12.04096255 -3.04388577 10.08278903 -2.5625 8.125 C-2.29566406 7.03445313 -2.02882813 5.94390625 -1.75390625 4.8203125 C-1 2 -1 2 0 0 Z " fill="#CBF7E7" transform="translate(807,451)"/>
<path d="M0 0 C0.33 0 0.66 0 1 0 C0.91253716 1.43861294 0.80434652 2.87597508 0.6875 4.3125 C0.62949219 5.11300781 0.57148437 5.91351562 0.51171875 6.73828125 C-0.08206694 9.36272334 -0.95780294 10.30820672 -3 12 C-4 10 -4 10 -3.22265625 7.6171875 C-2.83980469 6.71226562 -2.45695313 5.80734375 -2.0625 4.875 C-1.68222656 3.96492187 -1.30195312 3.05484375 -0.91015625 2.1171875 C-0.60980469 1.41851563 -0.30945313 0.71984375 0 0 Z " fill="#CBF6E5" transform="translate(782,519)"/>
<path d="M0 0 C2.34914492 2.34914492 2.73140357 3.95679446 3.625 7.125 C3.88539063 8.03507813 4.14578125 8.94515625 4.4140625 9.8828125 C4.70410156 10.93082031 4.70410156 10.93082031 5 12 C4.01 12 3.02 12 2 12 C0.86235649 7.73383684 0 4.43513689 0 0 Z " fill="#C0F0DE" transform="translate(700,577)"/>
<path d="M0 0 C0.33 0 0.66 0 1 0 C1.56561146 5.65611463 -0.28608722 9.22642128 -3 14 C-4.37095624 10.30962722 -3.60010967 8.29116165 -2.0625 4.75 C-1.68222656 3.85796875 -1.30195312 2.9659375 -0.91015625 2.046875 C-0.60980469 1.37140625 -0.30945313 0.6959375 0 0 Z " fill="#B5F2D9" transform="translate(823,402)"/>
<path d="M0 0 C0.33 0.66 0.66 1.32 1 2 C-0.80831392 5.61662784 -3.05278838 8.25604436 -6 11 C-6.66 10.67 -7.32 10.34 -8 10 C-5.36 6.7 -2.72 3.4 0 0 Z " fill="#C4F4E1" transform="translate(495,594)"/>
<path d="M0 0 C0.33 0 0.66 0 1 0 C1.3125 2.25 1.3125 2.25 1 5 C-1.5 7.3125 -1.5 7.3125 -4 9 C-4 4.98525763 -2.33218233 3.18024863 0 0 Z " fill="#CEF5E7" transform="translate(501,585)"/>
<path d="M0 0 C0.33 0 0.66 0 1 0 C1.36666667 5.5 1.36666667 5.5 -0.375 7.875 C-2 9 -2 9 -4 9 C-2.80100302 5.9168649 -1.52299523 2.93720508 0 0 Z " fill="#48D196" transform="translate(488,570)"/>
<path d="M0 0 C2.3125 0.1875 2.3125 0.1875 4 1 C0.67692308 4.93846154 0.67692308 4.93846154 -2.75 5.25 C-3.4925 5.1675 -4.235 5.085 -5 5 C-2.75 2.4375 -2.75 2.4375 0 0 Z " fill="#32CA86" transform="translate(731,550)"/>
<path d="M0 0 C0.66 0.99 1.32 1.98 2 3 C1.3125 6.125 1.3125 6.125 0 9 C-0.99 9.33 -1.98 9.66 -3 10 C-2.01 6.7 -1.02 3.4 0 0 Z " fill="#CFF5E6" transform="translate(775,536)"/>
<path d="M0 0 C0.309375 0.639375 0.61875 1.27875 0.9375 1.9375 C1.8345163 3.93610821 1.8345163 3.93610821 3 5 C3.07179964 6.51928038 3.08392007 8.04167482 3.0625 9.5625 C3.05347656 10.38878906 3.04445313 11.21507812 3.03515625 12.06640625 C3.01775391 13.02353516 3.01775391 13.02353516 3 14 C1.20724134 10.88089144 0.65709282 8.32317572 0.375 4.75 C0.30023437 3.85796875 0.22546875 2.9659375 0.1484375 2.046875 C0.09945312 1.37140625 0.05046875 0.6959375 0 0 Z " fill="#43C68A" transform="translate(515,451)"/>
<path d="M0 0 C1.95216435 3.90432869 2.50639991 6.72213252 3 11 C2.01 10.67 1.02 10.34 0 10 C0 6.7 0 3.4 0 0 Z " fill="#43CF90" transform="translate(402,392)"/>
<path d="M0 0 C0.33 0 0.66 0 1 0 C1.0270043 1.45823212 1.04639787 2.91660675 1.0625 4.375 C1.07410156 5.18710937 1.08570313 5.99921875 1.09765625 6.8359375 C1 9 1 9 0 11 C-0.66 11 -1.32 11 -2 11 C-1.125 3.375 -1.125 3.375 0 0 Z " fill="#B7F1D9" transform="translate(833,366)"/>
<path d="M0 0 C0.66 0 1.32 0 2 0 C2 0.99 2 1.98 2 3 C2.66 3 3.32 3 4 3 C4 3.66 4 4.32 4 5 C4.66 5 5.32 5 6 5 C5.67 6.32 5.34 7.64 5 9 C0.57142857 3.85714286 0.57142857 3.85714286 0 0 Z " fill="#D2F9EA" transform="translate(461,562)"/>
<path d="M0 0 C0.33 0 0.66 0 1 0 C1 2.64 1 5.28 1 8 C0.34 8 -0.32 8 -1 8 C-1 9.32 -1 10.64 -1 12 C-1.66 12 -2.32 12 -3 12 C-2.01 8.04 -1.02 4.08 0 0 Z " fill="#50C992" transform="translate(765,465)"/>
<path d="M0 0 C0.66 0.33 1.32 0.66 2 1 C-0.13478166 4.20217249 -1.62795029 5.27285259 -5 7 C-5.99 7 -6.98 7 -8 7 C-5.36 4.69 -2.72 2.38 0 0 Z " fill="#50CF98" transform="translate(368,33)"/>
<path d="M0 0 C0.99 0.33 1.98 0.66 3 1 C2.01 2.98 1.02 4.96 0 7 C-0.66 7 -1.32 7 -2 7 C-1.125 1.125 -1.125 1.125 0 0 Z " fill="#D1F6EA" transform="translate(532,515)"/>
<path d="M0 0 C2 1.5625 2 1.5625 4 4 C4.25 7.75 4.25 7.75 4 11 C1.54176828 7.31265242 0.98757384 4.30300029 0 0 Z " fill="#C4F6E1" transform="translate(417,446)"/>
<path d="M0 0 C2.56616632 3.84924948 2.55097676 6.4349304 3 11 C1.5 10 1.5 10 0 8 C-0.27345479 5.28153765 -0.13491285 2.74322801 0 0 Z " fill="#C7F4E2" transform="translate(341,272)"/>
<path d="M0 0 C0.99 0 1.98 0 3 0 C3.33 2.97 3.66 5.94 4 9 C1.3144406 6.3144406 0.93950026 3.62378672 0 0 Z " fill="#D7F9ED" transform="translate(451,541)"/>
<path d="M0 0 C0.99 0.33 1.98 0.66 3 1 C3.33 3.97 3.66 6.94 4 10 C1.04816899 7.04816899 0.91336012 4.04488053 0 0 Z " fill="#CEF8EA" transform="translate(447,531)"/>
<path d="M0 0 C0.95904856 3.83619425 0.91892116 5.32431536 0 9 C-0.99 9 -1.98 9 -3 9 C-2.01 6.03 -1.02 3.06 0 0 Z " fill="#C8F4E3" transform="translate(529,522)"/>
<path d="M0 0 C0.33 0 0.66 0 1 0 C1.36923077 5.53846154 1.36923077 5.53846154 -0.5 7.875 C-1.2425 8.431875 -1.2425 8.431875 -2 9 C-2.33 8.34 -2.66 7.68 -3 7 C-2.06421005 4.64018187 -1.06652192 2.30368736 0 0 Z " fill="#C6F5E0" transform="translate(786,509)"/>
<path d="M0 0 C2.74277578 3.19990508 4.6302836 6.00499382 6 10 C1.77202073 6.91709845 1.77202073 6.91709845 0 5 C-0.375 2.1875 -0.375 2.1875 0 0 Z " fill="#45CB8D" transform="translate(667,454)"/>
<path d="M0 0 C0.66 0 1.32 0 2 0 C2.33 2.64 2.66 5.28 3 8 C2.01 7.67 1.02 7.34 0 7 C0 4.69 0 2.38 0 0 Z " fill="#37CD89" transform="translate(399,384)"/>
<path d="M0 0 C1.485 0.99 1.485 0.99 3 2 C3.29296875 4.1640625 3.29296875 4.1640625 3.1875 6.625 C3.16042969 7.44226563 3.13335937 8.25953125 3.10546875 9.1015625 C3.07066406 9.72804688 3.03585937 10.35453125 3 11 C2.67 11 2.34 11 2 11 C0.80712589 7.12315913 0 4.08378077 0 0 Z " fill="#BDF6DF" transform="translate(390,337)"/>
<path d="M0 0 C5.23175837 -0.38281159 8.37802694 0.78145293 13 3 C9.57056481 4.18771723 7.62215325 3.80226223 4.25 2.5625 C3.45078125 2.27503906 2.6515625 1.98757812 1.828125 1.69140625 C1.22484375 1.46324219 0.6215625 1.23507813 0 1 C0 0.67 0 0.34 0 0 Z " fill="#37C587" transform="translate(815,25)"/>
<path d="M0 0 C2.95183101 2.95183101 3.08663988 5.95511947 4 10 C3.01 9.67 2.02 9.34 1 9 C0.67 6.03 0.34 3.06 0 0 Z " fill="#42CC92" transform="translate(447,533)"/>
<path d="M0 0 C2.18975773 3.28463659 2.99806563 6.20696275 4 10 C2 8.375 2 8.375 0 6 C-0.25 2.75 -0.25 2.75 0 0 Z " fill="#BFF0DD" transform="translate(415,525)"/>
<path d="M0 0 C0.66 0 1.32 0 2 0 C4.29013653 3.4352048 4.17842973 4.985331 4 9 C1.3144406 6.3144406 0.93950026 3.62378672 0 0 Z " fill="#CAF6E5" transform="translate(683,481)"/>
<path d="M0 0 C1.875 0.5625 1.875 0.5625 4 2 C5.25 5.625 5.25 5.625 6 9 C3.03134491 6.45543849 1.6380249 3.51005335 0 0 Z " fill="#D1F9E8" transform="translate(667,453)"/>
<path d="M0 0 C3.93673644 1.31224548 6.22719294 2.91910327 9 6 C5.51669784 5.35494404 2.90567134 4.01782732 0 2 C0 1.34 0 0.68 0 0 Z " fill="#35C17F" transform="translate(643,431)"/>
<path d="M0 0 C0.66 0 1.32 0 2 0 C1.67 1.98 1.34 3.96 1 6 C0.34 6 -0.32 6 -1 6 C-1.33 6.66 -1.66 7.32 -2 8 C-1.125 1.125 -1.125 1.125 0 0 Z " fill="#DEF8EF" transform="translate(775,426)"/>
<path d="M0 0 C0.625 1.875 0.625 1.875 1 4 C0.34 4.66 -0.32 5.32 -1 6 C-1.99 6 -2.98 6 -4 6 C-2.84826645 3.53199953 -1.95216435 1.95216435 0 0 Z " fill="#CCF4E5" transform="translate(580,417)"/>
<path d="M0 0 C2.02350324 3.03525486 2.32124018 4.19426202 2.625 7.6875 C2.69976562 8.49574219 2.77453125 9.30398438 2.8515625 10.13671875 C2.90054687 10.75160156 2.94953125 11.36648438 3 12 C2.67 11.34 2.34 10.68 2 10 C1.34 10 0.68 10 0 10 C0 6.7 0 3.4 0 0 Z " fill="#CBF2E0" transform="translate(354,333)"/>
<path d="M0 0 C5.75 2.625 5.75 2.625 8 6 C6.02 5.34 4.04 4.68 2 4 C2 3.34 2 2.68 2 2 C1.34 2 0.68 2 0 2 C0 1.34 0 0.68 0 0 Z " fill="#D1F8EA" transform="translate(797,104)"/>
<path d="M0 0 C3.3 0.99 6.6 1.98 10 3 C10 3.33 10 3.66 10 4 C6.05272412 4.17942163 3.4019487 4.09350689 0 2 C0 1.34 0 0.68 0 0 Z " fill="#5DD09F" transform="translate(467,45)"/>
</svg>
